<?xml version="1.0" standalone="no"?>
<!DOCTYPE svg PUBLIC "-//W3C//DTD SVG 20010904//EN"
 "http://www.w3.org/TR/2001/REC-SVG-20010904/DTD/svg10.dtd">
<svg version="1.0" xmlns="http://www.w3.org/2000/svg"
 width="150.000000pt" height="150.000000pt" viewBox="0 0 150.000000 150.000000"
 preserveAspectRatio="xMidYMid meet">

<g transform="translate(0.000000,150.000000) scale(0.100000,-0.100000)"
fill="#000000" stroke="none">
<path d="M746 964 c-9 -8 -16 -19 -16 -22 0 -9 78 -105 93 -114 15 -9 47 10
47 28 0 17 -87 124 -101 124 -4 0 -15 -7 -23 -16z"/>
<path d="M564 945 c-11 -28 4 -45 40 -45 l35 0 3 -77 c3 -77 4 -78 30 -81 22
-3 29 2 34 22 3 14 3 30 -1 35 -3 6 -3 15 0 21 3 5 19 -5 35 -23 24 -27 32
-30 47 -21 31 19 25 37 -37 112 l-60 72 -61 0 c-44 0 -61 -4 -65 -15z"/>
<path d="M1250 850 c0 -92 1 -100 20 -100 16 0 19 8 22 58 3 56 3 57 33 57 30
0 30 -1 33 -57 3 -50 6 -58 22 -58 17 0 20 7 20 53 0 73 -20 100 -71 95 -37
-3 -39 -2 -39 24 0 21 -5 28 -20 28 -19 0 -20 -7 -20 -100z"/>
<path d="M130 824 c0 -59 3 -74 15 -74 11 0 15 12 15 44 0 42 18 76 41 76 5 0
9 6 9 14 0 9 -13 13 -40 13 l-40 0 0 -73z"/>
<path d="M240 835 c0 -76 9 -84 88 -83 l52 0 0 74 c0 67 -2 74 -20 74 -16 0
-19 -8 -22 -57 -2 -48 -6 -58 -22 -61 -28 -6 -46 25 -46 75 0 32 -4 43 -15 43
-12 0 -15 -14 -15 -65z"/>
<path d="M420 824 c0 -67 2 -74 20 -74 16 0 19 8 22 58 3 51 5 57 27 60 31 5
41 -12 41 -71 0 -41 3 -48 18 -45 24 4 29 90 8 124 -14 21 -23 23 -76 23 l-60
-1 0 -74z"/>
<path d="M925 880 c-46 -51 -10 -130 60 -130 28 0 65 24 65 43 0 11 -29 8 -50
-5 -14 -9 -25 -10 -36 -3 -26 17 -16 28 26 30 68 3 69 3 63 28 -10 38 -34 57
-73 57 -24 0 -43 -7 -55 -20z m85 -25 c11 -13 7 -15 -28 -15 -33 0 -40 3 -36
15 4 8 16 15 29 15 12 0 28 -7 35 -15z"/>
<path d="M1097 882 c-10 -11 -17 -35 -17 -60 0 -46 25 -72 70 -72 27 0 70 25
70 41 0 12 -37 12 -45 -1 -11 -17 -44 -11 -56 11 -8 16 -8 28 0 45 11 24 45
33 56 14 7 -12 45 -13 45 -2 0 39 -94 56 -123 24z"/>
<path d="M467 683 c-17 -16 -5 -42 23 -52 17 -5 30 -14 30 -20 0 -17 -19 -22
-41 -10 -17 9 -20 8 -17 -3 7 -19 52 -22 68 -4 10 13 10 19 0 31 -7 8 -18 15
-25 15 -7 0 -18 7 -25 15 -10 12 -9 16 5 21 9 4 21 2 28 -5 17 -17 31 -13 17
4 -13 15 -51 20 -63 8z"/>
<path d="M570 608 c0 -45 4 -78 10 -78 6 0 10 13 10 30 0 27 2 29 30 24 39 -8
60 10 60 51 0 42 -16 54 -68 52 l-42 -1 0 -78z m86 46 c16 -24 16 -26 -5 -47
-17 -17 -25 -19 -39 -11 -24 16 -28 55 -6 71 25 18 31 17 50 -13z"/>
<path d="M722 678 c-14 -14 -15 -57 -2 -78 5 -9 27 -15 55 -16 l45 -2 0 52 0
52 -43 2 c-24 1 -49 -4 -55 -10z m59 -8 c25 -14 25 -56 0 -70 -20 -10 -51 -4
-51 10 0 5 -3 15 -6 23 -3 8 2 22 11 31 19 19 21 19 46 6z"/>
<path d="M866 674 c-34 -33 -9 -94 38 -94 22 0 46 17 46 33 0 4 -10 1 -22 -7
-12 -9 -26 -16 -30 -16 -12 0 -38 31 -38 45 0 22 31 47 49 40 48 -20 47 -20
32 -2 -17 21 -55 22 -75 1z"/>
<path d="M992 678 c-16 -16 -16 -70 0 -86 17 -17 63 -15 79 5 15 18 16 18 -32
-2 -10 -3 -24 1 -35 12 -17 17 -16 18 29 21 37 2 47 7 47 21 0 9 -5 22 -12 29
-15 15 -61 15 -76 0z m52 -4 c30 -12 18 -34 -19 -34 -38 0 -46 13 -17 29 21
13 17 12 36 5z"/>
</g>
</svg>
